<?xml version="1.0" encoding="UTF-8"?>
<svg xmlns="http://www.w3.org/2000/svg" viewBox="0 0 1200 630" width="1200" height="630">
  <defs>
    <linearGradient id="g98354" x1="74.24048101231685%" y1="6.269014643030211%" x2="25.75951898768315%" y2="93.7309853569698%">
      <stop offset="0%" stop-color="#2563EB"/>
      <stop offset="100%" stop-color="#1D4ED8"/>
    </linearGradient>
  </defs>
  <rect width="1200" height="630" fill="url(#g98354)"/>
  <polygon points="236.42779716290534,250 356.42779716290534,190 476.42779716290534,250" fill="rgba(255,255,255,0.06)" stroke="rgba(255,255,255,0.12)" stroke-width="2"/><rect x="250.42779716290534" y="250" width="12" height="150" fill="rgba(255,255,255,0.08)"/><rect x="300.42779716290534" y="250" width="12" height="150" fill="rgba(255,255,255,0.08)"/><rect x="350.42779716290534" y="250" width="12" height="150" fill="rgba(255,255,255,0.08)"/><rect x="400.42779716290534" y="250" width="12" height="150" fill="rgba(255,255,255,0.08)"/><rect x="450.42779716290534" y="250" width="12" height="150" fill="rgba(255,255,255,0.08)"/><rect x="226.42779716290534" y="400" width="260" height="12" rx="2" fill="rgba(255,255,255,0.1)"/><path d="M 828.6946510197595 142.0547366887331 L 873.6946510197595 162.0547366887331 L 873.6946510197595 202.0547366887331 C 873.6946510197595 232.0547366887331 828.6946510197595 252.0547366887331 828.6946510197595 252.0547366887331 C 828.6946510197595 252.0547366887331 783.6946510197595 232.0547366887331 783.6946510197595 202.0547366887331 L 783.6946510197595 162.0547366887331 Z" fill="rgba(255,255,255,0.06)" stroke="rgba(255,255,255,0.15)" stroke-width="2"/><text x="876.9763810792938" y="156.44757954403758" font-family="sans-serif" font-size="27.562745543196797" fill="rgba(255,255,255,0.16486166603397578)">★</text><text x="942.6904161460698" y="177.80402744188905" font-family="sans-serif" font-size="27.01649276446551" fill="rgba(255,255,255,0.08354264294728637)">★</text><text x="988.676016475074" y="160.44709709472954" font-family="sans-serif" font-size="35.3559452239424" fill="rgba(255,255,255,0.1466702690301463)">★</text><text x="816.342305066064" y="97.28659176267684" font-family="sans-serif" font-size="21.269202003255486" fill="rgba(255,255,255,0.08385615834966302)">★</text><text x="1079.1051562642679" y="148.2819111738354" font-family="sans-serif" font-size="26.1132607832551" fill="rgba(255,255,255,0.12558282860089093)">★</text>
  <circle cx="450.28536804020405" cy="456.84596233069897" r="2.0731558073312044" fill="rgba(255,255,255,0.06659025996457785)"/><circle cx="23.347418569028378" cy="334.9263516138308" r="2.1795227909460664" fill="rgba(255,255,255,0.03311237992718816)"/><circle cx="834.8005190491676" cy="284.9262130446732" r="1.6536966310814023" fill="rgba(255,255,255,0.0678290796186775)"/><circle cx="653.0657186172903" cy="12.675299153197557" r="2.831512297037989" fill="rgba(255,255,255,0.03216807035030797)"/><circle cx="1055.9300238266587" cy="339.066250724718" r="2.5199719951488078" fill="rgba(255,255,255,0.03391220033634454)"/><circle cx="736.8609208613634" cy="200.74434439418837" r="1.8559600980952382" fill="rgba(255,255,255,0.06874063645489514)"/><circle cx="336.69086806476116" cy="456.2984038190916" r="1.6094849947839975" fill="rgba(255,255,255,0.06919172849273308)"/><circle cx="213.27429777011275" cy="553.5908929095604" r="1.9098440865054727" fill="rgba(255,255,255,0.0788863457692787)"/><circle cx="164.33938471600413" cy="375.5558519298211" r="2.862293031066656" fill="rgba(255,255,255,0.06661881453590468)"/><circle cx="848.6075565218925" cy="620.7354943058454" r="1.7562456829473376" fill="rgba(255,255,255,0.058619036311283707)"/><circle cx="819.4803259335458" cy="376.0100479843095" r="2.9240812957286835" fill="rgba(255,255,255,0.048148741021286696)"/><circle cx="582.2209666483104" cy="290.8232660894282" r="2.161625871900469" fill="rgba(255,255,255,0.079375243333634)"/><circle cx="369.554675091058" cy="388.27182739041746" r="2.0248037823475897" fill="rgba(255,255,255,0.040266464680898936)"/><circle cx="568.1386146694422" cy="386.9888366293162" r="2.6635977062396705" fill="rgba(255,255,255,0.04244402417214587)"/><circle cx="1171.5642523951828" cy="290.6982308928855" r="2.0797024141065776" fill="rgba(255,255,255,0.07030357343144715)"/><circle cx="1034.8299672827125" cy="514.1327167279087" r="1.51418486982584" fill="rgba(255,255,255,0.03555669665336609)"/><circle cx="1180.0113416276872" cy="299.67086819931865" r="2.9003772092983127" fill="rgba(255,255,255,0.03044227107428014)"/><circle cx="396.9464734196663" cy="274.48814761592075" r="2.565244300290942" fill="rgba(255,255,255,0.030689270941074938)"/><circle cx="1081.1071417294443" cy="3.607284107711166" r="2.817452410236001" fill="rgba(255,255,255,0.030287903251592068)"/><circle cx="314.50468841940165" cy="121.9885438028723" r="2.322038330603391" fill="rgba(255,255,255,0.041587168113328514)"/>
  <text x="600" y="335" font-family="system-ui, -apple-system, 'Segoe UI', sans-serif" font-size="68" font-weight="700" fill="rgba(0,0,0,0.15)" text-anchor="middle" letter-spacing="1">CDS</text>
  <text x="600" y="332" font-family="system-ui, -apple-system, 'Segoe UI', sans-serif" font-size="68" font-weight="700" fill="white" text-anchor="middle" letter-spacing="1">CDS</text>
  <g transform="translate(1140, 575)">
    <rect x="0" y="0" width="40" height="40" rx="8" fill="rgba(255,255,255,0.15)"/>
    <text x="20" y="29" font-family="sans-serif" font-weight="bold" font-size="24" fill="rgba(255,255,255,0.6)" text-anchor="middle">K</text>
  </g>
</svg>